<?xml version="1.0" encoding="UTF-8"?> <svg xmlns="http://www.w3.org/2000/svg" width="536" height="208" viewBox="0 0 536 208" fill="none"><rect y="19.7728" width="19.7592" height="71.8154" fill="white"></rect><rect width="19.8443" height="71.901" transform="matrix(1 -8.78619e-08 -8.69859e-08 -1 445.636 188.122)" fill="white"></rect><rect width="19.7592" height="71.8154" transform="matrix(-1 0 0 1 130.401 0)" fill="white"></rect><rect width="19.6739" height="71.8154" transform="matrix(-1 0 0 1 241.802 0)" fill="white"></rect><rect width="19.7592" height="39.4599" transform="matrix(-1 0 0 1 424.746 135.823)" fill="white"></rect><rect width="19.7592" height="71.8154" transform="matrix(-1 0 0 1 344.53 0)" fill="white"></rect><rect width="19.7591" height="91.5026" transform="matrix(-1 0 0 1 200.996 0)" fill="white"></rect><rect x="148.479" y="116.131" width="19.7591" height="91.5026" fill="white"></rect><rect x="334.386" y="116.131" width="19.7591" height="91.5026" fill="white"></rect><path d="M369.811 155.584H392.235L424.32 207.627H401.895L369.811 155.584Z" fill="white"></path><rect x="90.3687" y="45.9749" width="19.6016" height="90.3641" transform="rotate(90 90.3687 45.9749)" fill="white"></rect><rect width="19.6872" height="90.3641" transform="matrix(-1.29604e-07 -1 -1 1.32694e-07 536 172.201)" fill="white"></rect><rect width="19.6872" height="90.3641" transform="matrix(-1.29604e-07 -1 -1 1.32694e-07 536 135.823)" fill="white"></rect><rect x="203.496" y="116.045" width="19.6016" height="90.3641" transform="rotate(90 203.496 116.045)" fill="white"></rect><rect width="19.6872" height="70.6049" transform="matrix(4.26183e-08 1 1 -4.48325e-08 130.401 71.8137)" fill="white"></rect><rect width="19.7341" height="71.8736" transform="matrix(-1 0 0 1 239.86 116.119)" fill="white"></rect><rect width="19.7341" height="91.5343" transform="matrix(-1 0 0 1 310.476 116.16)" fill="white"></rect><rect width="19.7038" height="70.6136" transform="matrix(4.26184e-08 1 1 -4.48325e-08 239.86 187.995)" fill="white"></rect><rect width="19.6872" height="70.6901" transform="matrix(4.26184e-08 1 1 -4.48325e-08 241.802 71.8137)" fill="white"></rect><rect width="19.6872" height="70.5197" transform="matrix(4.26183e-08 1 1 -4.48325e-08 344.53 71.8137)" fill="white"></rect><rect x="90.3687" width="19.6872" height="70.6049" transform="rotate(90 90.3687 0)" fill="white"></rect><rect width="19.6872" height="70.605" transform="matrix(-1.29604e-07 -1 -1 1.32694e-07 536 207.888)" fill="white"></rect><rect x="404.989" y="116.131" width="19.6872" height="70.605" transform="rotate(90 404.989 116.131)" fill="white"></rect><rect x="404.989" y="155.51" width="19.7728" height="70.605" transform="rotate(90 404.989 155.51)" fill="white"></rect></svg> 